PathFileType	4	(X/Y/Z)	C:\Users\IEUser\Desktop\02761_POST\experimental_data\task.trc
DataRate	CameraRate	NumFrames	NumMarkers	Units	OrigDataRate	OrigDataStartFrame	OrigNumFrames
100.000000	100.000000	4	51	mm	100.000000	180	361
Frame#	Time	C7			CLAV			LANK			LASI			LBHD			LELB			LFHD			LFIN			LFMH			LHEE			LKNE			LMED			LMET			LMIF			LPSI			LSHO			LTAD			LTHAP			LTHI			LTIAD			LTIB			LTOE			LTTU			LWRA			LWRB			RANK			RASI			RBAK			RBHD			RELB			RFHD			RFIN			RFMH			RHEE			RKNE			RMED			RMET			RMIF			RPSI			RSHO			RTAD			RTHAP			RTHI			RTIAD			RTIB			RTOE			RTTU			RWRA			RWRB			STRN			T10			
		X1	Y1	Z1	X2	Y2	Z2	X3	Y3	Z3	X4	Y4	Z4	X5	Y5	Z5	X6	Y6	Z6	X7	Y7	Z7	X8	Y8	Z8	X9	Y9	Z9	X10	Y10	Z10	X11	Y11	Z11	X12	Y12	Z12	X13	Y13	Z13	X14	Y14	Z14	X15	Y15	Z15	X16	Y16	Z16	X17	Y17	Z17	X18	Y18	Z18	X19	Y19	Z19	X20	Y20	Z20	X21	Y21	Z21	X22	Y22	Z22	X23	Y23	Z23	X24	Y24	Z24	X25	Y25	Z25	X26	Y26	Z26	X27	Y27	Z27	X28	Y28	Z28	X29	Y29	Z29	X30	Y30	Z30	X31	Y31	Z31	X32	Y32	Z32	X33	Y33	Z33	X34	Y34	Z34	X35	Y35	Z35	X36	Y36	Z36	X37	Y37	Z37	X38	Y38	Z38	X39	Y39	Z39	X40	Y40	Z40	X41	Y41	Z41	X42	Y42	Z42	X43	Y43	Z43	X44	Y44	Z44	X45	Y45	Z45	X46	Y46	Z46	X47	Y47	Z47	X48	Y48	Z48	X49	Y49	Z49	X50	Y50	Z50	X51	Y51	Z51	

181	1.8	-308.9722900390626	1293.771850585938	-290.0831909179688	-208.053207397461	1212.909912109375	-278.9949035644532	-641.2390136718751	179.7666625976563	-384.7479553222657	-238.4282226562501	830.4336547851565	-394.616424560547	-286.7911987304688	1431.060791015625	-349.5377502441407	-209.9051361083985	988.425231933594	-539.3200073242189	-159.6920928955078	1447.347534179688	-338.4749145507813	-20.28830909729004	796.296325683594	-416.2017822265626	-615.4612426757814	57.2504005432129	-322.9697265625001	-672.1450195312501	211.0547180175782	-335.6119995117188	-323.3675537109376	417.1943359375001	-425.9101562500001	-614.2134399414064	164.8918151855469	-313.6332092285157	-639.2717285156251	69.97499084472658	-399.8039855957032	-595.7754516601564	117.6002655029297	-366.7149047851563	-381.7356872558594	877.1242675781252	-324.0158081054688	-275.5982055664063	1250.65771484375	-428.0193786621095	-217.0829620361329	542.7140502929689	-374.1052551269532	-214.0250701904297	615.3792724609376	-372.3545227050782	-304.9121398925782	537.1115112304689	-477.1168212890626	-529.9368286132814	198.4151306152344	-376.7372436523438	-478.2930603027345	295.1906738281251	-462.1311645507814	-610.5225219726564	69.02304840087892	-368.1127014160157	-334.8519287109376	330.8425598144532	-391.7365112304689	-73.18834686279298	829.1639404296877	-409.4480285644532	-56.54702377319337	808.3748779296877	-468.1363830566407	-259.0118408203126	52.45971679687501	-230.4225463867188	-231.6975250244141	837.449645996094	-185.5927276611328	-347.1393737792969	1153.468627929688	-181.8867492675782	-300.0024108886719	1417.51416015625	-222.2036285400391	-310.0786437988282	987.5914306640627	-45.9553337097168	-145.2447204589844	1440.874755859375	-224.5742340087891	-290.6467285156251	719.6829833984376	55.80044555664064	-120.842269897461	35.95848083496094	-272.0158081054688	-299.0200195312501	43.45686340332032	-279.5004882812501	-150.9031982421875	436.5782165527345	-194.4353485107422	-224.2423553466797	64.02333068847658	-302.8413696289063	-161.5721435546875	28.58137130737305	-192.5186157226563	-179.1742248535157	67.21176147460939	-246.9718170166016	-378.2116088867188	882.3679809570315	-234.2467651367188	-281.6673583984376	1255.5078125	-138.4375	-128.7978668212891	570.4749145507814	-253.7008514404297	-169.4491271972657	684.7520751953126	-232.5510559082032	-185.6513061523438	552.5391845703126	-128.747802734375	-162.6558227539063	226.6725311279297	-260.4121093750001	-206.4049072265626	234.2310638427735	-165.5312957763672	-135.3190307617188	40.16614151000977	-227.6602172851563	-121.3506546020508	358.1153869628907	-252.0863800048829	-263.5498046875001	762.4044189453126	-0.671039640903473	-307.0495910644532	776.427917480469	41.92568969726563	-178.0751342773438	1027.398559570313	-282.5660705566407	-359.7855224609376	977.930114746094	-285.0905761718751	
182	1.81	-297.8355102539063	1294.422607421875	-289.1007995605469	-197.084945678711	1213.332641601563	-278.7176208496094	-621.1622924804689	184.0519714355469	-383.5272521972657	-228.6873168945313	830.447448730469	-394.480438232422	-274.8248596191407	1432.232421875	-348.0530090332032	-205.2806396484376	986.061706542969	-536.0828247070314	-147.6676940917969	1447.617065429688	-336.7454528808594	-14.72836780548096	789.9184570312502	-420.2514648437501	-592.5963134765626	60.07567977905275	-326.1955261230469	-652.0404663085939	213.8913879394532	-333.3848266601563	-301.5438842773438	416.1158142089845	-425.8162536621095	-593.3865966796876	167.6700744628907	-312.7091674804688	-617.8812866210939	75.3298797607422	-401.959442138672	-574.9354248046876	122.028305053711	-367.6649780273438	-371.5604553222657	876.582946777344	-322.2045593261719	-265.6994323730469	1251.374145507813	-427.6015625000001	-198.9027709960938	544.0715332031251	-377.0559997558594	-198.8174285888672	616.6659545898439	-374.9906005859376	-289.3044128417969	536.4277954101564	-476.8154296875001	-508.9438476562501	200.6852569580079	-375.8711853027344	-456.2514953613282	296.1387023925782	-461.4413452148439	-588.7254028320314	73.56307983398439	-371.0873413085938	-312.1749877929688	329.9949035644532	-391.4436950683595	-67.0510711669922	823.2078857421877	-411.4733276367189	-52.30225372314455	803.3575439453127	-470.9611206054689	-258.8992004394532	52.64634704589845	-230.2503662109376	-220.5099334716797	838.2161254882815	-185.2539215087891	-335.7879943847657	1153.372192382813	-181.3338317871094	-288.3297424316407	1418.08544921875	-220.8279418945313	-297.9878234863282	986.813171386719	-46.36767959594727	-133.4413452148438	1440.399169921875	-222.8359069824219	-276.7297058105469	718.1699829101564	53.40955352783205	-120.9728012084961	35.89820098876954	-271.9776306152344	-299.2837219238282	43.81037521362305	-279.0576782226563	-146.2371520996094	435.0721130371095	-194.3551025390626	-224.196273803711	64.0825653076172	-302.6968994140626	-161.675277709961	28.44818115234376	-192.4462432861329	-179.1064758300782	67.15802001953126	-246.8711242675782	-367.2142639160157	883.254821777344	-232.7268981933594	-270.2410888671876	1255.265869140625	-137.6383514404297	-120.7400512695313	568.6901245117189	-252.2245788574219	-159.7832641601563	683.4510498046876	-230.9261932373047	-180.1757507324219	550.9197387695314	-128.4173736572266	-160.2909393310547	225.8252258300782	-260.3623962402344	-204.5093994140626	233.7588500976563	-165.5765991210938	-135.3634948730469	40.11601257324219	-227.6314086914063	-117.5576705932617	356.4953308105469	-252.1214599609376	-250.1269073486329	761.5541992187501	-2.744742631912232	-293.8014221191407	774.7757568359377	39.95953750610352	-167.2329406738282	1027.75	-283.3071289062501	-349.1814270019532	978.645446777344	-284.4904785156251	
183	1.82	-286.7685852050782	1295.239501953125	-288.2305603027344	-186.2274322509766	1213.867431640625	-278.6415405273438	-600.0338134765626	187.4110260009766	-382.3119506835938	-219.0843811035157	830.759216308594	-394.2521362304689	-262.9491882324219	1433.581665039063	-346.6521911621094	-201.0299987792969	983.8733520507815	-532.9222412109376	-135.7244415283203	1448.034912109375	-335.1409301757813	-9.6942195892334	783.712829589844	-424.8854064941407	-567.8608398437501	62.49807739257814	-329.2159423828126	-631.1887817382814	215.5363159179688	-331.2959289550782	-279.7581787109376	415.9331054687501	-425.6765747070314	-571.4557495117189	169.7676239013672	-311.8289794921876	-594.4716186523439	79.83577728271486	-404.0519409179689	-552.5438842773439	125.991439819336	-368.4523010253907	-361.5509338378907	876.357116699219	-320.6127929687501	-256.1153564453126	1252.115234375	-427.3220520019532	-181.126953125	546.1260986328126	-380.0056152343751	-183.7376556396485	618.6246337890626	-377.8045043945313	-274.1465759277344	536.3006591796876	-476.472625732422	-487.0582885742189	202.9193725585938	-374.8922424316407	-433.7926635742189	297.6007080078126	-460.671844482422	-564.9553833007814	77.51046752929689	-373.8972473144532	-289.2464904785157	329.8224182128907	-390.9888305664064	-61.25887680053712	817.4942016601565	-413.895721435547	-48.60969161987306	798.5257568359377	-474.1453552246095	-258.8160400390626	52.88984680175783	-230.0578308105469	-209.7110137939454	839.0881958007815	-184.7825012207032	-324.5775756835938	1153.452270507813	-180.8627014160157	-276.7120971679688	1418.811767578125	-219.5363159179688	-285.6760559082032	986.0360107421877	-47.03187942504884	-121.6848983764649	1440.022338867188	-221.2340393066407	-262.3075256347657	716.6691894531251	50.62117004394533	-121.1177215576172	35.84613800048829	-271.9195251464844	-299.3934326171876	44.34463119506837	-278.7297363281251	-142.0684204101563	433.8875732421876	-194.2964935302735	-224.1697387695313	64.20796203613283	-302.5231933593751	-161.7562866210938	28.34674835205079	-192.3797454833985	-179.0473327636719	67.14579010009767	-246.7476806640626	-356.5397949218751	884.2752075195315	-231.4564819335938	-258.8657836914063	1255.141723632813	-136.9388122558594	-113.3381576538086	567.0656738281251	-251.0369567871094	-150.9063568115235	682.2042846679689	-230.0164184570313	-175.1443023681641	549.5718383789064	-128.1267395019532	-158.169677734375	225.2412261962891	-260.0694885253907	-203.4459228515626	233.6600799560547	-165.5637817382813	-135.4165954589844	40.07611846923829	-227.5907440185547	-114.2127304077149	355.1516113281251	-251.9624633789063	-236.4132843017579	760.7232055664064	-5.277690887451173	-280.1998596191407	773.1018676757815	37.5928077697754	-156.5798492431641	1028.211303710938	-284.2091064453126	-338.7271728515626	979.5330810546877	-283.9107055664063	
184	1.83	-275.7504272460938	1296.2060546875	-287.4642639160157	-175.4574737548828	1214.51708984375	-278.7421569824219	-577.8983764648439	189.6712493896485	-381.1708374023438	-209.5879516601563	831.377868652344	-393.872528076172	-251.1753845214844	1435.058227539063	-345.3323059082032	-197.0832824707032	981.8991699218752	-529.8814697265626	-123.8768157958985	1448.613525390625	-333.6751403808594	-5.21646547317505	777.7396240234377	-430.0947570800782	-541.5737915039064	64.42775726318361	-331.8380126953126	-609.5874023437501	215.9807434082032	-329.4613647460938	-258.0626220703126	416.6620483398439	-425.5303344726564	-548.4758300781251	171.0772552490235	-311.0229492187501	-569.3309936523439	83.29371643066408	-405.9047851562501	-528.7878417968751	129.2633972167969	-369.0335998535157	-351.6765441894532	876.5357055664065	-319.3006591796876	-246.7887268066407	1252.885498046875	-427.1463928222657	-163.7930145263672	548.8654785156251	-382.6871948242188	-168.7573394775391	621.2844238281251	-380.4553222656251	-259.2624816894532	536.6946411132814	-476.1025390625001	-464.248992919922	205.0481109619141	-373.9715270996094	-411.0129699707032	299.5118103027344	-459.8897705078126	-539.5644531250001	80.67191314697267	-376.3279724121094	-266.1303405761719	330.3987731933594	-390.5051879882814	-55.80990982055665	812.0913085937502	-416.7148437500001	-45.47683715820313	793.904968261719	-477.6677551269532	-258.7621154785157	53.20537185668947	-229.8323822021485	-199.2936096191407	840.062194824219	-184.1658782958985	-313.4894409179688	1153.746948242188	-180.4431457519532	-265.1298828125001	1419.655639648438	-218.3218383789063	-273.1487426757813	985.302429199219	-47.96181869506837	-109.9754104614258	1439.775390625	-219.7819061279297	-247.3755340576172	715.2421264648439	47.40368652343751	-121.2852325439453	35.79499053955079	-271.8396606445313	-299.3761901855469	45.05550765991212	-278.4775695800782	-138.2174835205078	433.0604248046876	-194.2883300781251	-224.1699371337891	64.40114593505861	-302.3101806640626	-161.8117828369141	28.2755527496338	-192.323959350586	-178.9920959472657	67.17789459228517	-246.6042022705079	-346.1640625000001	885.4342041015627	-230.4374542236329	-247.5150604248047	1255.1796875	-136.3378601074219	-106.6543426513672	565.7464599609376	-250.3411102294922	-142.8168334960938	681.2204589843751	-229.863265991211	-170.0363006591797	548.6999511718751	-127.896957397461	-156.3294067382813	224.8434295654297	-259.5928955078126	-202.9657897949219	233.8916168212891	-165.4965209960938	-135.475814819336	40.04526519775391	-227.5406951904297	-111.2516860961914	354.0572509765626	-251.6683197021485	-222.4177856445313	759.9525146484376	-8.305908203125002	-266.2216491699219	771.4660644531252	34.80595779418946	-146.1022644042969	1028.799194335938	-285.2028503417969	-328.3788452148438	980.559509277344	-283.3107910156251	
